<svg width="91" height="48" viewBox="0 0 91 48" fill="none" xmlns="http://www.w3.org/2000/svg">
<path d="M26.2329 24.4478H22.3979L22.3774 22.3354H25.5972C26.1646 22.3354 26.6294 22.2637 26.9917 22.1201C27.354 21.9697 27.624 21.7544 27.8018 21.4741C27.9863 21.187 28.0786 20.8384 28.0786 20.4282C28.0786 19.9634 27.9897 19.5874 27.812 19.3003C27.6411 19.0132 27.3711 18.8047 27.002 18.6748C26.6396 18.5449 26.1714 18.48 25.5972 18.48H23.4644V31H20.3882V16.0703H25.5972C26.4653 16.0703 27.2412 16.1523 27.9248 16.3164C28.6152 16.4805 29.1997 16.73 29.6782 17.0649C30.1567 17.3999 30.5225 17.8237 30.7754 18.3364C31.0283 18.8423 31.1548 19.4438 31.1548 20.1411C31.1548 20.7563 31.0146 21.3237 30.7344 21.8433C30.4609 22.3628 30.0269 22.7866 29.4321 23.1147C28.8442 23.4429 28.0752 23.624 27.125 23.6582L26.2329 24.4478ZM26.0996 31H21.5571L22.7568 28.6006H26.0996C26.6396 28.6006 27.0806 28.5151 27.4224 28.3442C27.7642 28.1665 28.0171 27.9272 28.1812 27.6265C28.3452 27.3257 28.4272 26.9805 28.4272 26.5908C28.4272 26.1533 28.3521 25.7739 28.2017 25.4526C28.0581 25.1313 27.8257 24.8853 27.5044 24.7144C27.1831 24.5366 26.7593 24.4478 26.2329 24.4478H23.2695L23.29 22.3354H26.9814L27.689 23.166C28.5981 23.1523 29.3296 23.313 29.8833 23.6479C30.4438 23.9761 30.8506 24.4033 31.1035 24.9297C31.3633 25.4561 31.4932 26.02 31.4932 26.6216C31.4932 27.5786 31.2847 28.3853 30.8677 29.0415C30.4507 29.6909 29.8389 30.1797 29.0322 30.5078C28.2324 30.8359 27.2549 31 26.0996 31ZM43.3979 28.6006V31H35.8818V28.6006H43.3979ZM36.8765 16.0703V31H33.8003V16.0703H36.8765ZM56.7485 23.1865V23.894C56.7485 25.0288 56.5947 26.0474 56.2871 26.9497C55.9795 27.8521 55.5454 28.6211 54.9849 29.2568C54.4243 29.8857 53.7544 30.3677 52.9751 30.7026C52.2026 31.0376 51.3447 31.2051 50.4014 31.2051C49.4648 31.2051 48.6069 31.0376 47.8276 30.7026C47.0552 30.3677 46.3853 29.8857 45.8179 29.2568C45.2505 28.6211 44.8096 27.8521 44.4951 26.9497C44.1875 26.0474 44.0337 25.0288 44.0337 23.894V23.1865C44.0337 22.0449 44.1875 21.0264 44.4951 20.1309C44.8027 19.2285 45.2368 18.4595 45.7974 17.8237C46.3647 17.188 47.0347 16.7026 47.8071 16.3677C48.5864 16.0327 49.4443 15.8652 50.3809 15.8652C51.3242 15.8652 52.1821 16.0327 52.9546 16.3677C53.7339 16.7026 54.4038 17.188 54.9644 17.8237C55.5317 18.4595 55.9692 19.2285 56.2769 20.1309C56.5913 21.0264 56.7485 22.0449 56.7485 23.1865ZM53.6416 23.894V23.166C53.6416 22.373 53.5698 21.6758 53.4263 21.0742C53.2827 20.4727 53.0708 19.9668 52.7905 19.5566C52.5103 19.1465 52.1685 18.8389 51.7651 18.6338C51.3618 18.4219 50.9004 18.3159 50.3809 18.3159C49.8613 18.3159 49.3999 18.4219 48.9966 18.6338C48.6001 18.8389 48.2617 19.1465 47.9814 19.5566C47.708 19.9668 47.4995 20.4727 47.356 21.0742C47.2124 21.6758 47.1406 22.373 47.1406 23.166V23.894C47.1406 24.6802 47.2124 25.3774 47.356 25.9858C47.4995 26.5874 47.7114 27.0967 47.9917 27.5137C48.272 27.9238 48.6138 28.2349 49.0171 28.4468C49.4204 28.6587 49.8818 28.7646 50.4014 28.7646C50.9209 28.7646 51.3823 28.6587 51.7856 28.4468C52.189 28.2349 52.5273 27.9238 52.8008 27.5137C53.0742 27.0967 53.2827 26.5874 53.4263 25.9858C53.5698 25.3774 53.6416 24.6802 53.6416 23.894ZM70.7964 23.1968V29.1133C70.564 29.3936 70.2051 29.6978 69.7197 30.0259C69.2344 30.3472 68.6089 30.624 67.8433 30.8564C67.0776 31.0889 66.1514 31.2051 65.0645 31.2051C64.1006 31.2051 63.2222 31.0479 62.4292 30.7334C61.6362 30.4121 60.9526 29.9438 60.3784 29.3286C59.811 28.7134 59.3735 27.9614 59.0659 27.0728C58.7583 26.1772 58.6045 25.1553 58.6045 24.0068V23.0737C58.6045 21.9253 58.7515 20.9033 59.0454 20.0078C59.3462 19.1123 59.7734 18.3569 60.3271 17.7417C60.8809 17.1265 61.5405 16.6582 62.3062 16.3369C63.0718 16.0156 63.9229 15.855 64.8594 15.855C66.1582 15.855 67.2246 16.0669 68.0586 16.4907C68.8926 16.9077 69.5283 17.4888 69.9658 18.2339C70.4102 18.9722 70.6836 19.8198 70.7861 20.7769H67.8022C67.7271 20.271 67.5835 19.8301 67.3716 19.4541C67.1597 19.0781 66.8555 18.7842 66.459 18.5723C66.0693 18.3604 65.5635 18.2544 64.9414 18.2544C64.4287 18.2544 63.9707 18.3604 63.5674 18.5723C63.1709 18.7773 62.8359 19.0815 62.5625 19.4849C62.2891 19.8882 62.0806 20.3872 61.937 20.9819C61.7935 21.5767 61.7217 22.2671 61.7217 23.0532V24.0068C61.7217 24.7861 61.7969 25.4766 61.9473 26.0781C62.0977 26.6729 62.3198 27.1753 62.6138 27.5854C62.9146 27.9888 63.2837 28.293 63.7212 28.498C64.1587 28.7031 64.668 28.8057 65.249 28.8057C65.7344 28.8057 66.1377 28.7646 66.459 28.6826C66.7871 28.6006 67.0503 28.5015 67.2485 28.3853C67.4536 28.2622 67.6108 28.146 67.7202 28.0366V25.3911H64.9106V23.1968H70.7964Z" fill="black"/>
<rect x="1.5" y="1.5" width="88" height="45" rx="6.5" stroke="black" stroke-opacity="0.9" stroke-width="3" stroke-linejoin="round"/>
</svg>
